<svg width="25" height="25" viewBox="0 0 25 25" fill="none" xmlns="http://www.w3.org/2000/svg">
<path d="M5.28662 10.5282C5.28538 9.63871 5.4602 8.75777 5.80101 7.93616C6.14182 7.11454 6.64187 6.36851 7.27235 5.74106C7.90283 5.11361 8.65126 4.61715 9.4745 4.2803C10.2977 3.94345 11.1795 3.77287 12.069 3.77839C15.7805 3.80598 18.7493 6.89101 18.7493 10.6129V11.2782C18.7493 14.6359 19.4518 16.5844 20.0705 17.6493C20.1372 17.7631 20.1726 17.8924 20.1733 18.0243C20.174 18.1562 20.14 18.2859 20.0745 18.4004C20.0091 18.5149 19.9146 18.6101 19.8007 18.6764C19.6867 18.7428 19.5572 18.7779 19.4254 18.7782H4.6098C4.47791 18.7779 4.34845 18.7427 4.23447 18.6764C4.12048 18.61 4.02601 18.5148 3.96059 18.4003C3.89517 18.2858 3.8611 18.156 3.86183 18.0241C3.86256 17.8923 3.89805 17.7629 3.96474 17.6491C4.5838 16.5842 5.28661 14.6357 5.28661 11.2782L5.28662 10.5282Z" stroke="#141D26" stroke-linecap="round" stroke-linejoin="round"/>
<path d="M9.01758 18.7782V19.5282C9.01758 20.3238 9.33365 21.0869 9.89626 21.6495C10.4589 22.2121 11.2219 22.5282 12.0176 22.5282C12.8132 22.5282 13.5763 22.2121 14.1389 21.6495C14.7015 21.0869 15.0176 20.3238 15.0176 19.5282V18.7782" stroke="#141D26" stroke-linecap="round" stroke-linejoin="round"/>
</svg>
