<svg width="31" height="26" viewBox="0 0 31 26" fill="none" xmlns="http://www.w3.org/2000/svg">
<path d="M29.7119 2.60591V10.4159H21.9019" stroke="#C51F5D" stroke-width="2" stroke-linecap="round" stroke-linejoin="round"/>
<path d="M1.07544 23.4325V15.6225H8.88544" stroke="#C51F5D" stroke-width="2" stroke-linecap="round" stroke-linejoin="round"/>
<path d="M4.34262 9.11431C5.00279 7.24874 6.12478 5.58081 7.60391 4.26615C9.08304 2.95148 10.8711 2.03294 12.8012 1.59622C14.7314 1.1595 16.7407 1.21884 18.6417 1.76871C20.5427 2.31858 22.2734 3.34104 23.6724 4.74071L29.7121 10.416M1.07544 15.6226L7.11517 21.2979C8.51414 22.6976 10.2449 23.7201 12.1459 24.2699C14.0469 24.8198 16.0562 24.8791 17.9863 24.4424C19.9165 24.0057 21.7045 23.0871 23.1836 21.7725C24.6628 20.4578 25.7848 18.7899 26.4449 16.9243" stroke="#C51F5D" stroke-width="2" stroke-linecap="round" stroke-linejoin="round"/>
</svg>
