<svg width="26" height="26" viewBox="0 0 26 26" fill="none" xmlns="http://www.w3.org/2000/svg">
<path d="M22.4978 13.1432V24.979H3.56055V13.1432" stroke="#C51F5D" stroke-width="2" stroke-linecap="round" stroke-linejoin="round"/>
<path d="M24.865 7.22525H1.19336V13.1432H24.865V7.22525Z" stroke="#C51F5D" stroke-width="2" stroke-linecap="round" stroke-linejoin="round"/>
<path d="M13.0292 24.979V7.22525" stroke="#C51F5D" stroke-width="2" stroke-linecap="round" stroke-linejoin="round"/>
<path d="M13.0293 7.22526H7.70321C6.91845 7.22526 6.16583 6.91352 5.61092 6.3586C5.05601 5.80369 4.74426 5.05107 4.74426 4.26631C4.74426 3.48155 5.05601 2.72893 5.61092 2.17401C6.16583 1.6191 6.91845 1.30736 7.70321 1.30736C11.8457 1.30736 13.0293 7.22526 13.0293 7.22526Z" stroke="#C51F5D" stroke-width="2" stroke-linecap="round" stroke-linejoin="round"/>
<path d="M13.0292 7.22526H18.3553C19.14 7.22526 19.8927 6.91352 20.4476 6.3586C21.0025 5.80369 21.3142 5.05107 21.3142 4.26631C21.3142 3.48155 21.0025 2.72893 20.4476 2.17401C19.8927 1.6191 19.14 1.30736 18.3553 1.30736C14.2128 1.30736 13.0292 7.22526 13.0292 7.22526Z" stroke="#C51F5D" stroke-width="2" stroke-linecap="round" stroke-linejoin="round"/>
</svg>
