<svg width="25" height="25" viewBox="0 0 25 25" fill="none" xmlns="http://www.w3.org/2000/svg">
<path d="M20.2676 8.2782H3.76758C3.35336 8.2782 3.01758 8.61398 3.01758 9.0282V12.0282C3.01758 12.4424 3.35336 12.7782 3.76758 12.7782H20.2676C20.6818 12.7782 21.0176 12.4424 21.0176 12.0282V9.0282C21.0176 8.61398 20.6818 8.2782 20.2676 8.2782Z" stroke="#141D26" stroke-linecap="round" stroke-linejoin="round"/>
<path d="M19.5176 12.7782V19.5282C19.5176 19.7271 19.4386 19.9179 19.2979 20.0585C19.1573 20.1992 18.9665 20.2782 18.7676 20.2782H5.26758C5.06867 20.2782 4.8779 20.1992 4.73725 20.0585C4.5966 19.9179 4.51758 19.7271 4.51758 19.5282V12.7782" stroke="#141D26" stroke-linecap="round" stroke-linejoin="round"/>
<path d="M12.0176 8.2782V20.2782" stroke="#141D26" stroke-linecap="round" stroke-linejoin="round"/>
<path d="M16.2602 7.21753C15.1996 8.27819 12.0176 8.27819 12.0176 8.27819C12.0176 8.27819 12.0176 5.09621 13.0782 4.03555C13.5003 3.61399 14.0724 3.37727 14.669 3.37744C15.2655 3.37761 15.8375 3.61465 16.2593 4.03645C16.6811 4.45825 16.9182 5.03029 16.9183 5.6268C16.9185 6.22332 16.6818 6.79549 16.2602 7.21753V7.21753Z" stroke="#141D26" stroke-linecap="round" stroke-linejoin="round"/>
<path d="M7.77493 7.21753C8.83559 8.27819 12.0176 8.27819 12.0176 8.27819C12.0176 8.27819 12.0176 5.09621 10.9569 4.03555C10.5349 3.61399 9.9627 3.37727 9.36618 3.37744C8.76967 3.37761 8.19763 3.61465 7.77583 4.03645C7.35403 4.45825 7.11699 5.03029 7.11682 5.6268C7.11665 6.22332 7.35337 6.79549 7.77493 7.21753V7.21753Z" stroke="#141D26" stroke-linecap="round" stroke-linejoin="round"/>
</svg>
