<svg width="39" height="39" viewBox="0 0 39 39" fill="none" xmlns="http://www.w3.org/2000/svg">
<path d="M0.0175781 19.7782C0.0175781 9.20036 8.59263 0.625305 19.1705 0.625305C29.7483 0.625305 38.3234 9.20036 38.3234 19.7782C38.3234 30.3561 29.7483 38.9311 19.1705 38.9311C8.59263 38.9311 0.0175781 30.3561 0.0175781 19.7782Z" fill="#E8E8E8"/>
<path d="M19.1705 22.1723C21.815 22.1723 23.9587 20.0286 23.9587 17.3841C23.9587 14.7396 21.815 12.5959 19.1705 12.5959C16.526 12.5959 14.3823 14.7396 14.3823 17.3841C14.3823 20.0286 16.526 22.1723 19.1705 22.1723Z" stroke="black" stroke-width="1.19706" stroke-miterlimit="10"/>
<path d="M11.9125 26.3614C12.6484 25.0877 13.7065 24.03 14.9805 23.2947C16.2545 22.5594 17.6996 22.1723 19.1706 22.1724C20.6416 22.1724 22.0867 22.5595 23.3607 23.2948C24.6347 24.0302 25.6927 25.0878 26.4286 26.3615" stroke="black" stroke-width="1.19706" stroke-linecap="round" stroke-linejoin="round"/>
</svg>
