<svg width="27" height="27" viewBox="0 0 27 27" fill="none" xmlns="http://www.w3.org/2000/svg">
<g clip-path="url(#clip0_3_300)">
<path d="M18.8428 23.3449V21.1509C18.8428 19.9871 18.3805 18.8709 17.5576 18.048C16.7347 17.2251 15.6185 16.7628 14.4547 16.7628H5.67851C4.51471 16.7628 3.39858 17.2251 2.57565 18.048C1.75272 18.8709 1.29041 19.9871 1.29041 21.1509V23.3449" stroke="#C51F5D" stroke-width="2" stroke-linecap="round" stroke-linejoin="round"/>
<path d="M10.0667 12.3747C12.4902 12.3747 14.4548 10.41 14.4548 7.98656C14.4548 5.56307 12.4902 3.59845 10.0667 3.59845C7.64321 3.59845 5.67859 5.56307 5.67859 7.98656C5.67859 10.41 7.64321 12.3747 10.0667 12.3747Z" stroke="#C51F5D" stroke-width="2" stroke-linecap="round" stroke-linejoin="round"/>
<path d="M25.425 23.3449V21.1509C25.4243 20.1786 25.1007 19.2341 24.505 18.4657C23.9093 17.6973 23.0753 17.1484 22.1339 16.9054" stroke="#C51F5D" stroke-width="2" stroke-linecap="round" stroke-linejoin="round"/>
<path d="M17.7457 3.74106C18.6896 3.98273 19.5262 4.53169 20.1237 5.30137C20.7211 6.07105 21.0454 7.01769 21.0454 7.99204C21.0454 8.96638 20.7211 9.91302 20.1237 10.6827C19.5262 11.4524 18.6896 12.0013 17.7457 12.243" stroke="#C51F5D" stroke-width="2" stroke-linecap="round" stroke-linejoin="round"/>
</g>
<defs>
<clipPath id="clip0_3_300">
<rect width="26.3286" height="26.3286" fill="white" transform="translate(0.193359 0.307373)"/>
</clipPath>
</defs>
</svg>
